<?xml version="1.0" encoding="UTF-8" standalone="no"?>
<!-- Created with Inkscape (http://www.inkscape.org/) -->

<svg
   xmlns:dc="http://purl.org/dc/elements/1.1/"
   xmlns:cc="http://creativecommons.org/ns#"
   xmlns:rdf="http://www.w3.org/1999/02/22-rdf-syntax-ns#"
   xmlns:svg="http://www.w3.org/2000/svg"
   xmlns="http://www.w3.org/2000/svg"
   xmlns:sodipodi="http://sodipodi.sourceforge.net/DTD/sodipodi-0.dtd"
   xmlns:inkscape="http://www.inkscape.org/namespaces/inkscape"
   width="108.24"
   height="15.378"
   id="svg2"
   version="1.1"
   inkscape:version="0.48.1 r9760"
   sodipodi:docname="New document 1">
  <defs
     id="defs4" />
  <sodipodi:namedview
     id="base"
     pagecolor="#ffffff"
     bordercolor="#666666"
     borderopacity="1.0"
     inkscape:pageopacity="0.0"
     inkscape:pageshadow="2"
     inkscape:zoom="3.959798"
     inkscape:cx="77.596093"
     inkscape:cy="11.624401"
     inkscape:document-units="px"
     inkscape:current-layer="layer1"
     showgrid="false"
     fit-margin-top="0"
     fit-margin-left="0"
     fit-margin-right="0"
     fit-margin-bottom="0"
     inkscape:window-width="1033"
     inkscape:window-height="594"
     inkscape:window-x="44"
     inkscape:window-y="96"
     inkscape:window-maximized="0" />
  <metadata
     id="metadata7">
    <rdf:RDF>
      <cc:Work
         rdf:about="">
        <dc:format>image/svg+xml</dc:format>
        <dc:type
           rdf:resource="http://purl.org/dc/dcmitype/StillImage" />
        <dc:title></dc:title>
      </cc:Work>
    </rdf:RDF>
  </metadata>
  <g
     inkscape:label="Layer 1"
     inkscape:groupmode="layer"
     id="layer1"
     transform="translate(-7.0571899e-8,-1036.9842)">
    <g
       style="font-size:22px;font-style:normal;font-variant:normal;font-weight:normal;font-stretch:normal;line-height:125%;letter-spacing:0px;word-spacing:0px;fill:#000000;fill-opacity:1;stroke:none;font-family:Monospace;-inkscape-font-specification:Monospace"
       id="text3010">
      <path
         d="m 9.2620001,1044.8382 c 0.3079997,-1.76 0.4839995,-3.52 -0.022,-5.148 -0.6599994,-2.112 -2.398001,-2.464 -3.322,-2.464 -1.3199987,0 -3.0140013,0.572 -4.268,2.618 -0.94599908,1.518 -1.34200034,3.234 -1.650000029428101,4.994 C -0.26399967,1046.4882 -0.50599931,1048.4682 0.11000007,1050.1402 c 0.65999934,1.782 2.17800103,2.222 3.25600003,2.222 1.1879988,0 2.9480013,-0.462 4.268,-2.552 0.945999,-1.518 1.3420003,-3.234 1.628,-4.972 m -1.782,-0.264 c -0.2639998,1.65 -0.5060005,3.146 -0.99,4.554 -0.6819993,2.09 -2.046001,2.75 -3.036,2.75 -0.8579992,0 -2.0680001,-0.55 -2.112,-2.662 -0.022,-1.32 0.3300002,-3.344 0.528,-4.642 0.2419997,-1.408 0.4840003,-2.86 0.858,-4.048 0.8579991,-2.618 2.5300005,-2.816 3.08,-2.816 0.7259992,0 2.112,0.396 2.178,2.574 0.022,1.232 -0.2640003,2.904 -0.506,4.29"
         style="font-family:LMRomanSlant10;-inkscape-font-specification:LMRomanSlant10 Bold Italic"
         id="path3036" />
      <path
         d="m 18.194,1051.8782 0.11,-0.682 -0.704,0 c -1.979998,0 -2.002,-0.242 -1.87,-1.056 l 2.068,-12.342 c 0.088,-0.528 0.088,-0.572 -0.418,-0.572 -1.605998,1.408 -3.542001,1.408 -4.246,1.408 l -0.11,0.682 c 0.44,0 1.738001,0 2.992,-0.572 l -1.914,11.396 c -0.132,0.792 -0.242002,1.056 -2.222,1.056 l -0.704,0 -0.11,0.682 c 0.791999,-0.066 2.706001,-0.066 3.586,-0.066 0.879999,0 2.794001,0 3.542,0.066"
         style="font-family:LMRomanSlant10;-inkscape-font-specification:LMRomanSlant10 Bold Italic"
         id="path3038" />
      <path
         d="m 30.492,1048.0502 -0.55,0 c -0.22,0.66 -0.528,1.628 -0.814,1.958 -0.176,0.176 -1.628,0.176 -2.112,0.176 l -3.96,0 2.706,-2.266 c 3.937996,-3.036 5.456,-4.224 5.83,-6.424 0.418,-2.508 -1.276003,-4.268 -3.96,-4.268 -2.485997,0 -4.444,2.024 -4.774,3.982 -0.198,1.232 0.902,1.232 0.968,1.232 0.374,0 1.188,-0.264 1.32,-1.166 0.11,-0.572 -0.198001,-1.144 -0.968,-1.144 -0.176,0 -0.22,0 -0.286,0.022 0.747999,-1.43 2.068001,-2.244 3.344,-2.244 2.001998,0 2.64,1.782 2.354,3.586 -0.308,1.76 -1.694001,3.498 -3.124,4.862 l -5.016,4.708 c -0.286,0.242 -0.286,0.286 -0.374,0.814 l 8.162,0 1.254,-3.828"
         style="font-family:LMRomanSlant10;-inkscape-font-specification:LMRomanSlant10 Bold Italic"
         id="path3040" />
      <path
         d="m 41.668,1048.1162 c 0.286,-1.804 -0.814002,-3.52 -3.014,-3.982 1.891998,-0.594 3.432,-2.134 3.718,-3.872 0.308,-1.804 -1.430002,-3.036 -3.542,-3.036 -2.221998,0 -4.114,1.32 -4.4,2.992 -0.11,0.726 0.308001,1.144 0.946,1.144 0.681999,0 1.188,-0.484 1.298,-1.122 0.198,-1.1 -0.836,-1.1 -1.166,-1.1 0.857999,-1.078 2.354001,-1.364 3.146,-1.364 0.901999,0 2.024,0.484 1.694,2.464 -0.044,0.264 -0.286001,1.54 -1.034,2.508 -0.835999,1.056 -1.584,1.122 -2.134,1.144 -0.198,0.022 -0.726,0.066 -0.88,0.066 -0.176,0.022 -0.33,0.044 -0.374,0.264 -0.044,0.242 0.11,0.242 0.484,0.242 l 0.968,0 c 1.803998,0 2.376,1.496 2.024,3.652 -0.505999,2.992 -2.134001,3.63 -3.102,3.63 -0.945999,0 -2.53,-0.374 -3.08,-1.672 0.747999,0.11 1.518,-0.374 1.65,-1.21 0.132,-0.792 -0.396001,-1.232 -1.034,-1.232 -0.527999,0 -1.276,0.308 -1.43,1.276 -0.352,2.002 1.452002,3.454 3.85,3.454 2.683997,0 5.038,-2.002 5.412,-4.246"
         style="font-family:LMRomanSlant10;-inkscape-font-specification:LMRomanSlant10 Bold Italic"
         id="path3042" />
      <path
         d="m 52.954,1048.2482 0.11,-0.682 -2.2,0 1.672,-10.01 c 0.066,-0.44 0.088,-0.572 -0.264,-0.572 -0.198,0 -0.264,0 -0.484,0.264 l -8.47,10.318 -0.11,0.682 5.852,0 -0.33,1.914 c -0.132,0.792 -0.220002,1.034 -1.848,1.034 l -0.462,0 -0.11,0.682 c 0.923999,-0.066 2.068001,-0.066 2.992,-0.066 0.923999,0 2.090001,0 2.97,0.066 l 0.11,-0.682 -0.462,0 c -1.627998,0 -1.628,-0.242 -1.496,-1.034 l 0.33,-1.914 2.2,0 m -3.652,-0.682 -5.368,0 6.732,-8.206 -1.364,8.206"
         style="font-family:LMRomanSlant10;-inkscape-font-specification:LMRomanSlant10 Bold Italic"
         id="path3044" />
      <path
         d="m 63.602,1047.4562 c 0.418,-2.618 -1.012002,-4.818 -3.388,-4.818 -1.055999,0 -2.068001,0.352 -2.97,1.122 l 0.704,-4.29 c 0.418,0.132 1.122001,0.286 1.826,0.286 2.705997,0 4.576,-2.002 4.62,-2.288 0.022,-0.132 -0.022,-0.242 -0.176,-0.242 0,0 -0.066,0 -0.176,0.066 -0.483999,0.198 -1.628001,0.638 -3.102,0.638 -0.879999,0 -1.870001,-0.154 -2.838,-0.616 -0.154,-0.066 -0.242,-0.066 -0.242,-0.066 -0.22,0 -0.242,0.176 -0.308,0.528 l -1.078,6.512 c -0.066,0.396 -0.11,0.572 0.198,0.572 0.154,0 0.22,-0.066 0.33,-0.198 0.286,-0.352 1.298002,-1.54 3.08,-1.54 1.143999,0 1.54,1.012 1.65,1.408 0.22,0.814 0.11,1.672 -0.066,2.772 -0.132,0.77 -0.352001,2.09 -1.034,3.014 -0.681999,0.858 -1.584001,1.43 -2.596,1.43 -1.605998,0 -2.662,-1.166 -2.816,-2.464 0.066,0.022 0.11,0.044 0.352,0.044 0.725999,0 1.21,-0.55 1.298,-1.078 0.088,-0.528 -0.198001,-1.078 -0.924,-1.078 -0.308,0 -1.1,0.154 -1.276,1.166 -0.308,1.892 0.836003,4.026 3.3,4.026 2.551998,0 5.148001,-2.112 5.632,-4.906"
         style="font-family:LMRomanSlant10;-inkscape-font-specification:LMRomanSlant10 Bold Italic"
         id="path3046" />
      <path
         d="m 74.778,1047.3902 c 0.462,-2.794 -1.144002,-4.906 -3.586,-4.906 -1.495998,0 -2.486001,1.122 -3.102,2.178 l 0.088,-0.528 c 0.923999,-5.566 3.784001,-6.358 4.906,-6.358 0.528,0 1.43,0.132 1.782,0.88 -0.33,0 -1.21,0 -1.364,0.99 -0.11,0.682 0.352001,1.012 0.836,1.012 0.352,0 1.056,-0.198 1.188,-1.056 0.22,-1.32 -0.572002,-2.376 -2.398,-2.376 -2.815997,0 -6.248001,2.838 -7.062,7.7 -0.989999,5.874 1.298002,7.436 3.344,7.436 2.441998,0 4.884001,-2.068 5.368,-4.972 m -1.98,-0.022 c -0.176,1.056 -0.352,2.156 -0.858,2.948 -0.879999,1.32 -1.914,1.43 -2.42,1.43 -1.385999,0 -1.826,-1.32 -1.892,-1.65 -0.242,-1.034 0.066,-2.794 0.132,-3.19 0.286,-1.716 1.342002,-3.916 3.322,-3.916 0.352,0 1.364001,0 1.826,1.364 0.264,0.814 0.066,1.936 -0.11,3.014"
         style="font-family:LMRomanSlant10;-inkscape-font-specification:LMRomanSlant10 Bold Italic"
         id="path3048" />
      <path
         d="m 88,1037.7102 -5.346,0 c -2.683997,0 -2.662,-0.286 -2.684,-0.704 l -0.55,0 -1.496,4.532 0.55,0 c 0.132,-0.352 0.572,-1.738 0.902,-2.002 0.176,-0.132 1.892,-0.132 2.178,-0.132 l 4.554,0 -3.058,3.476 c -2.463997,2.97 -3.696,6.028 -4.07,8.272 -0.044,0.22 -0.219999,1.21 0.792,1.21 1.011999,0 1.188,-0.99 1.232,-1.21 l 0.176,-1.122 c 0.198,-1.21 0.462,-2.42 0.836,-3.608 0.176,-0.506 0.814001,-2.398 2.002,-3.762 l 3.674,-4.18 c 0.242,-0.264 0.242,-0.308 0.308,-0.77"
         style="font-family:LMRomanSlant10;-inkscape-font-specification:LMRomanSlant10 Bold Italic"
         id="path3050" />
      <path
         d="m 96.646,1048.1822 c 0.132,-0.792 0.066,-1.782 -0.616,-2.706 -0.352,-0.462 -0.660001,-0.682 -1.936,-1.562 1.737998,-0.814 2.992,-1.958 3.234,-3.41 0.352,-2.024 -1.408002,-3.278 -3.41,-3.278 -2.199998,0 -4.246,1.628 -4.598,3.674 -0.066,0.396 -0.175999,1.386 0.572,2.42 0.198,0.264 0.924001,0.814 1.408,1.188 -1.385999,0.638 -3.476,1.87 -3.85,4.048 -0.374,2.332 1.606002,3.806 3.916,3.806 2.485998,0 4.884,-1.826 5.28,-4.18 m -0.286,-7.678 c -0.198,1.254 -1.232001,2.31 -2.684,3.08 l -2.442,-1.76 c -0.901999,-0.66 -0.858,-1.408 -0.792,-1.782 0.22,-1.342 1.804002,-2.266 3.366,-2.266 1.605998,0 2.816,1.144 2.552,2.728 m -0.946,8.47 c -0.264,1.628 -2.112002,2.772 -3.916,2.772 -1.891998,0 -3.256,-1.364 -2.948,-3.19 0.22,-1.276 1.166002,-2.684 3.19,-3.718 l 2.42,1.716 c 0.55,0.418 1.474,1.078 1.254,2.42"
         style="font-family:LMRomanSlant10;-inkscape-font-specification:LMRomanSlant10 Bold Italic"
         id="path3052" />
      <path
         d="m 108.24,1044.6402 c 0.99,-5.918 -1.298,-7.414 -3.256,-7.414 -1.21,0 -2.354,0.396 -3.454,1.386 -1.078,0.99 -1.738,1.914 -2.002,3.564 -0.461999,2.75 1.1,4.906 3.564,4.906 1.342,0 2.398,-0.924 3.124,-2.2 l -0.11,0.704 c -0.858,5.148 -3.322,6.16 -4.598,6.16 -0.374,0 -1.562,-0.044 -2.024,-0.792 0.968,0 1.254,-0.638 1.32,-1.012 0.11,-0.682 -0.374,-1.012 -0.858,-1.012 -0.352,0 -1.034,0.198 -1.188,1.056 -0.242,1.474 0.792002,2.376 2.662,2.376 2.838,0 6.028,-2.992 6.82,-7.722 m -1.694,-2.024 c -0.308,1.826 -1.408,3.96 -3.344,3.96 -0.352,0 -1.364,0 -1.804,-1.386 -0.264,-0.814 -0.088,-1.914 0.088,-2.992 0.198,-1.188 0.374,-2.222 0.968,-3.036 0.792,-1.1 1.672,-1.386 2.442,-1.386 1.012,0 1.606,0.748 1.826,1.738 0.132,0.704 0,2.09 -0.176,3.102"
         style="font-family:LMRomanSlant10;-inkscape-font-specification:LMRomanSlant10 Bold Italic"
         id="path3054" />
    </g>
  </g>
</svg>
